<svg xmlns="http://www.w3.org/2000/svg" width="199" height="43" viewBox="0 0 199 43">
  <defs>
    <style>
      .cls-1 {
        fill: #181b2e;
      }

      .cls-1, .cls-2 {
        fill-rule: evenodd;
      }

      .cls-2 {
        fill: #13d38d;
      }
    </style>
  </defs>
  <path id="_1" data-name="1" class="cls-1" d="M63.925,35.74h4.906V18.54h6.783v-4H57.142v4h6.783v17.2ZM94.3,14.543V22.9H84.668V14.543H79.762v21.2h4.906V27.049H94.3V35.74H99.2v-21.2H94.3ZM110.619,31.8V26.9h9.841V23.083h-9.841v-4.6h11.143V14.543H105.744v21.2h16.412V31.8H110.619Zm31.22-.787a7.955,7.955,0,0,1-3.816.908,7.227,7.227,0,0,1-3.558-.863,6.2,6.2,0,0,1-2.437-2.407,6.973,6.973,0,0,1-.879-3.513,7.036,7.036,0,0,1,.879-3.543,6.077,6.077,0,0,1,2.452-2.392,7.485,7.485,0,0,1,3.6-.848,7.286,7.286,0,0,1,5.481,2.392l3.149-2.907a10.026,10.026,0,0,0-3.815-2.725,13.131,13.131,0,0,0-5.057-.939,12.633,12.633,0,0,0-6,1.408,10.427,10.427,0,0,0-4.164,3.906,10.765,10.765,0,0,0-1.5,5.647,10.764,10.764,0,0,0,1.5,5.648,10.477,10.477,0,0,0,4.134,3.906,12.387,12.387,0,0,0,5.935,1.408,15.523,15.523,0,0,0,4.572-.7,12.791,12.791,0,0,0,4-2v-8.6h-4.481v6.208ZM157.252,31.8V26.9h9.841V23.083h-9.841v-4.6H168.4V14.543H152.376v21.2h16.413V31.8H157.252ZM198.1,35.74l-0.061-21.2h-4.027L186.2,27.716l-7.933-13.172h-4.058v21.2h4.6V23.295l6.207,10.2h2.211l6.238-10.477L193.5,35.74h4.6Z"/>
  <path id="_2" data-name="2" class="cls-2" d="M37.216,43H8.785L0,16.424,23,0,46,16.424ZM16.4,29.825l-2.9,8.767H28.678ZM9.545,19.474l4.5,3.212L15.1,19.474H9.545Zm7.018-4.412L18.731,8.5l-9.187,6.56h7.019Zm23.711,4.412H19.824l-1.964,5.938L34.405,37.229ZM12.584,27.1L6.906,23.043l3.509,10.616ZM36.455,15.062L24.18,6.295l-2.9,8.767H36.455Z"/>
</svg>
