<?xml version="1.0" encoding="utf-8"?>
<!-- Generator: Adobe Illustrator 24.3.0, SVG Export Plug-In . SVG Version: 6.00 Build 0)  -->
<svg xmlns="http://www.w3.org/2000/svg" width="132" height="30" viewBox="0 0 132 30">
  <defs>
    <style>
      .cls-1 {
        fill: #181b2e;
        fill-rule: evenodd;
      }
    </style>
  </defs>
  <path id="_1" data-name="1" class="cls-1" d="M43.345,23.875h3.24V12.515h4.48V9.875h-12.2v2.64h4.48v11.36Zm20.06-14v5.52h-6.36V9.875h-3.24v14h3.24v-5.74h6.36v5.74h3.24v-14h-3.24Zm10.78,11.4v-3.24h6.5v-2.52h-6.5v-3.04h7.36v-2.6H70.965v14h10.84v-2.6h-7.62Zm20.62-.52a5.253,5.253,0,0,1-2.52.6,4.771,4.771,0,0,1-2.35-.57,4.1,4.1,0,0,1-1.61-1.59,4.607,4.607,0,0,1-.58-2.32,4.648,4.648,0,0,1,.58-2.34,4.016,4.016,0,0,1,1.62-1.58,4.941,4.941,0,0,1,2.38-.56,4.812,4.812,0,0,1,3.62,1.58l2.08-1.92a6.619,6.619,0,0,0-2.52-1.8,8.67,8.67,0,0,0-3.34-.62,8.343,8.343,0,0,0-3.96.93,6.888,6.888,0,0,0-2.75,2.58,7.108,7.108,0,0,0-.99,3.73,7.108,7.108,0,0,0,.99,3.73,6.923,6.923,0,0,0,2.73,2.58,8.183,8.183,0,0,0,3.92.93,10.256,10.256,0,0,0,3.02-.46,8.454,8.454,0,0,0,2.64-1.32v-5.68h-2.96v4.1Zm10.18,0.52v-3.24h6.5v-2.52h-6.5v-3.04h7.36v-2.6h-10.58v14h10.84v-2.6h-7.62Zm26.98,2.6-0.04-14h-2.66l-5.16,8.7-5.24-8.7h-2.68v14h3.04v-8.22l4.1,6.74h1.46l4.12-6.92,0.02,8.4h3.04ZM25.889,30H6.111L0,11.458,16,0l16,11.46ZM11.41,20.807L9.394,26.924H19.95ZM6.64,13.585l3.129,2.241,0.739-2.241H6.64Zm4.882-3.078L13.03,5.93,6.639,10.507h4.883Zm16.494,3.078H13.791l-1.366,4.143,11.509,8.244ZM8.754,18.9L4.8,16.076l2.441,7.406Zm16.606-8.4L16.821,4.391l-2.016,6.116H25.36Z"/>
</svg>
