<svg xmlns="http://www.w3.org/2000/svg" width="199" height="41" viewBox="0 0 199 41">
  <defs>
    <style>
      .cls-1 {
        fill: #1cb2ff;
      }

      .cls-1, .cls-2 {
        fill-rule: evenodd;
      }

      .cls-2 {
        fill: #181b2e;
      }
    </style>
  </defs>
  <path id="_1" data-name="1" class="cls-1" d="M43.008,15.653L34.8,41H8.221L0.008,15.653,1.861,14.3,21.508-.007,41.621,14.645h0ZM7.32,18.037l5.845,4.257,1.38-4.257H7.32Zm7.652,9.834-3.136,9.678H28.257Zm0.69-13.281,2.577-7.954L7.319,14.59h8.342Zm22.96,3.447H18.159l-2.07,6.387,16.555,12.06ZM12.047,25.742L5.3,20.825,9.47,33.694ZM35.7,14.59L22.412,4.912,19.276,14.59H35.7Z"/>
  <path id="_2" data-name="2" class="cls-2" d="M64.925,36.74h4.906V19.54h6.783v-4H58.142v4h6.783v17.2ZM95.3,15.543V23.9H85.668V15.543H80.762v21.2h4.906V28.049H95.3V36.74H100.2v-21.2H95.3ZM111.619,32.8V27.9h9.841V24.083h-9.841v-4.6h11.143V15.543H106.744v21.2h16.412V32.8H111.619Zm31.22-.787a7.955,7.955,0,0,1-3.816.908,7.227,7.227,0,0,1-3.558-.863,6.2,6.2,0,0,1-2.437-2.407,7.518,7.518,0,0,1,0-7.055,6.077,6.077,0,0,1,2.452-2.392,7.485,7.485,0,0,1,3.6-.848,7.286,7.286,0,0,1,5.481,2.392l3.149-2.907a10.026,10.026,0,0,0-3.815-2.725,13.131,13.131,0,0,0-5.057-.939,12.633,12.633,0,0,0-6,1.408,10.427,10.427,0,0,0-4.164,3.906,10.765,10.765,0,0,0-1.5,5.647,10.764,10.764,0,0,0,1.5,5.648,10.477,10.477,0,0,0,4.134,3.906,12.387,12.387,0,0,0,5.935,1.408,15.523,15.523,0,0,0,4.572-.7,12.791,12.791,0,0,0,4-2v-8.6h-4.481v6.208ZM158.252,32.8V27.9h9.841V24.083h-9.841v-4.6H169.4V15.543H153.376v21.2h16.413V32.8H158.252ZM199.1,36.74l-0.061-21.2h-4.027L187.2,28.716l-7.933-13.172h-4.058v21.2h4.6V24.295l6.207,10.2h2.211l6.238-10.477L194.5,36.74h4.6Z"/>
</svg>
