<svg xmlns="http://www.w3.org/2000/svg" width="188" height="41" viewBox="0 0 188 41">
  <defs>
    <style>
      .cls-1 {
        fill: #fff;
      }

      .cls-1, .cls-2 {
        fill-rule: evenodd;
      }

      .cls-2 {
        fill: #00bbd3;
      }
    </style>
  </defs>
  <path id="_1" data-name="1" class="cls-1" d="M60.494,34.13h4.642V17.853h6.419V14.071H54.075v3.783h6.419V34.13ZM89.236,14.071V21.98H80.123V14.071H75.481V34.13h4.642V25.906h9.113V34.13h4.642V14.071H89.236ZM104.681,30.4V25.762H114V22.152h-9.314V17.8h10.546V14.071H100.068V34.13H115.6V30.4H104.681Zm29.544-.745a7.523,7.523,0,0,1-3.61.86,6.834,6.834,0,0,1-3.367-.817,5.871,5.871,0,0,1-2.307-2.278,6.594,6.594,0,0,1-.831-3.324,6.653,6.653,0,0,1,.831-3.353,5.753,5.753,0,0,1,2.321-2.264,7.081,7.081,0,0,1,3.41-.8,6.9,6.9,0,0,1,5.187,2.264l2.98-2.751a9.483,9.483,0,0,0-3.611-2.579,12.423,12.423,0,0,0-4.785-.888,11.953,11.953,0,0,0-5.674,1.332,9.867,9.867,0,0,0-3.94,3.7A10.182,10.182,0,0,0,119.41,24.1a10.181,10.181,0,0,0,1.419,5.344,9.913,9.913,0,0,0,3.911,3.7,11.726,11.726,0,0,0,5.617,1.333,14.694,14.694,0,0,0,4.327-.659,12.105,12.105,0,0,0,3.782-1.891V23.785h-4.241V29.66ZM148.811,30.4V25.762h9.313V22.152h-9.313V17.8h10.545V14.071H144.2V34.13h15.532V30.4H148.811Zm38.656,3.725L187.41,14.071H183.6l-7.393,12.465L168.7,14.071h-3.84V34.13h4.356V22.352l5.874,9.657h2.092l5.9-9.915,0.029,12.035h4.355Z"/>
  <path id="_2" data-name="2" class="cls-2" d="M34.789,41H8.212L0,15.659,21.5,0,43,15.659ZM15.332,28.436L12.624,36.8H26.807Zm-6.41-9.87,4.2,3.063,0.993-3.063h-5.2Zm6.56-4.207L17.509,8.1,8.922,14.36h6.561Zm22.164,4.207H18.531L16.7,24.229,32.161,35.5ZM11.764,25.836L6.456,21.97l3.28,10.122ZM34.078,14.36L22.6,6,19.894,14.36H34.078Z"/>
</svg>
