<svg xmlns="http://www.w3.org/2000/svg" width="188" height="41" viewBox="0 0 188 41">
  <defs>
    <style>
      .cls-1 {
        fill: #fff;
        fill-rule: evenodd;
      }
    </style>
  </defs>
  <path id="_1" data-name="1" class="cls-1" d="M60.494,34.13h4.642V17.853h6.419V14.071H54.075v3.783h6.419V34.13ZM89.236,14.071V21.98H80.123V14.071H75.481V34.13h4.642V25.906h9.113V34.13h4.642V14.071H89.236ZM104.681,30.4V25.762H114V22.152h-9.314V17.8h10.546V14.071H100.068V34.13H115.6V30.4H104.681Zm29.544-.745a7.523,7.523,0,0,1-3.61.86,6.834,6.834,0,0,1-3.367-.817,5.871,5.871,0,0,1-2.307-2.278,6.594,6.594,0,0,1-.831-3.324,6.653,6.653,0,0,1,.831-3.353,5.753,5.753,0,0,1,2.321-2.264,7.081,7.081,0,0,1,3.41-.8,6.9,6.9,0,0,1,5.187,2.264l2.98-2.751a9.483,9.483,0,0,0-3.611-2.579,12.423,12.423,0,0,0-4.785-.888,11.953,11.953,0,0,0-5.674,1.332,9.867,9.867,0,0,0-3.94,3.7A10.182,10.182,0,0,0,119.41,24.1a10.181,10.181,0,0,0,1.419,5.344,9.913,9.913,0,0,0,3.911,3.7,11.726,11.726,0,0,0,5.617,1.333,14.694,14.694,0,0,0,4.327-.659,12.105,12.105,0,0,0,3.782-1.891V23.785h-4.241V29.66ZM148.811,30.4V25.762h9.313V22.152h-9.313V17.8h10.545V14.071H144.2V34.13h15.532V30.4H148.811Zm38.656,3.725L187.41,14.071H183.6l-7.393,12.465L168.7,14.071h-3.84V34.13h4.356V22.352l5.874,9.657h2.092l5.9-9.915,0.029,12.035h4.355Z"/>
  <path id="_2" data-name="2" class="cls-1" d="M34.636,41H8.176L0,15.742,21.405,0.132,42.812,15.742ZM15.265,28.478l-2.7,8.332H26.69ZM8.883,18.64l4.186,3.053,0.988-3.053H8.883Zm6.532-4.193,2.018-6.235-8.55,6.235h6.532ZM37.482,18.64H18.45l-1.827,5.644,15.4,11.23Zm-25.77,7.246L6.427,22.032,9.693,32.121ZM33.928,14.447L22.5,6.115l-2.7,8.332H33.928Z"/>
</svg>
