<svg xmlns="http://www.w3.org/2000/svg" width="185" height="41" viewBox="0 0 185 41">
  <defs>
    <style>
      .cls-1 {
        fill: #171b2f;
      }

      .cls-1, .cls-2 {
        fill-rule: evenodd;
      }

      .cls-2 {
        fill: #00bcd4;
      }
    </style>
  </defs>
  <path id="_1" data-name="1" class="cls-1" d="M72.451,15.273V14.1H57.721v1.175h6.763V34.13h1.2V15.273h6.763ZM93.628,34.13V14.1h-1.2v9.4H78.869V14.1h-1.2V34.13h1.2V24.673H92.424V34.13h1.2Zm21.234-18.857V14.1H101.937V34.13h13.3V32.955H103.14V24.472h10.432v-1.2H103.14v-8h11.722ZM136.153,24.3v6.649a9.7,9.7,0,0,1-5.961,2.063,9.061,9.061,0,0,1-9.2-8.913,9.055,9.055,0,0,1,9.2-8.884,9.513,9.513,0,0,1,6.333,2.379l0.717-.888a10.707,10.707,0,0,0-7.05-2.637,10.217,10.217,0,0,0-10.4,10.03,10.209,10.209,0,0,0,10.345,10.059,11.046,11.046,0,0,0,7.108-2.608V24.3h-1.089Zm21.835-9.027V14.1H145.063V34.13h13.3V32.955H146.267V24.472H156.7v-1.2H146.267v-8h11.721ZM184.409,34.13V14.1h-1.662l-8,15.762L166.7,14.1h-1.662V34.13h1.146V15.76l8.283,16.192h0.544l8.225-16.192,0.029,18.37h1.146Z"/>
  <path id="_2" data-name="2" class="cls-2" d="M34.789,41H8.212L0,15.659,21.5,0,43,15.659ZM15.332,28.436L12.624,36.8H26.807Zm-6.41-9.87,4.2,3.063,0.993-3.063h-5.2Zm6.56-4.207L17.509,8.1,8.922,14.36h6.561Zm22.164,4.207H18.531L16.7,24.229,32.161,35.5ZM11.764,25.836L6.456,21.97l3.28,10.122ZM34.078,14.36L22.6,6,19.894,14.36H34.078Z"/>
</svg>
